 <svg id="Layer_2" data-name="Layer 2" xmlns="http://www.w3.org/2000/svg" viewBox="0 0 1080 1080"><defs><style>.cls-3{fill:#b3b3b3}.cls-22,.cls-28,.cls-29,.cls-32,.cls-4{stroke:#000;stroke-miterlimit:10}.cls-4{stroke-width:1.4081px}.cls-5{fill:#5a87af}.cls-6{fill:#367aad}.cls-7{fill:#e2b88f}.cls-11{fill:#f7991c}.cls-12{fill:#fff}.cls-13{fill:#e6e6e6}.cls-17{opacity:.6;fill:#1b4468}.cls-18{opacity:.13}.cls-19{fill:#42210b}.cls-20{fill:#e5a16e}.cls-21{fill:#e28140}.cls-22{stroke-width:1.36676px}.cls-24{fill:#ccc}.cls-25{fill:gray}.cls-27{fill:red}.cls-28{stroke-width:1.4885px}.cls-29{stroke-width:2.06314px}.cls-31{fill:#999}.cls-32{stroke-width:1.43639px}</style></defs><path d="M126.09 269.316C37.756 342.768 717.476-273.911 990.07 429.31c13.064 33.7 12.074 73.432-5.346 105.464-95.344 175.315 89.516 316.614 16.936 423.72-55.791 82.33-623.727 152.886-812.022 54.49s-58.843-268.029-84.733-416.37-77.388-199.935 21.183-327.3z" fill="#e5b1e4"/><ellipse cx="534.322" cy="704.313" rx="217.324" ry="31.777" opacity=".1"/><path class="cls-3" d="M403.274 326.15h11.564v346.387h-11.564zM436.174 672.537h11.853v26.627h-11.853z"/><path class="cls-3" d="M801.048 530.788v22.53H340.601V410.635h22.529v120.153h437.918zM560.616 553.318h20.417v22.53h-20.417z"/><path class="cls-3" transform="rotate(90 570.824 580.952)" d="M565.72 464.71h10.209v232.483H565.72z"/><path class="cls-3" transform="rotate(180 459.687 633.968)" d="M454.583 575.847h10.209v116.241h-10.209z"/><circle class="cls-4" cx="459.687" cy="699.164" r="6.29"/><circle class="cls-4" cx="459.687" cy="699.164" r="15.229"/><path class="cls-5" d="M481.563 454.99s42.97-34.015 60.337-26.75 50.222 8.206 60.079 6.798l9.856-1.408 4.224 65.241H481.563l-14.87-14.08z"/><path class="cls-6" d="M481.563 467.827s42.97-34.015 60.337-26.749 50.222 8.205 60.079 6.797l9.856-1.408 3.393 52.404h.831l-4.224-65.241-9.856 1.408c-9.857 1.408-42.713.469-60.08-6.797s-60.336 26.749-60.336 26.749l-14.87 29.8 4.35 4.12z"/><path class="cls-3" transform="rotate(180 681.961 633.968)" d="M676.857 575.847h10.209v116.241h-10.209z"/><path class="cls-7" d="M459.84 454.99a27.515 27.515 0 0021.723 0s6.743 11.785-3.434 25.445a43.707 43.707 0 00-28.497-5.44s12.423-2.318 10.209-20.005z"/><circle class="cls-4" cx="681.961" cy="699.164" r="6.29"/><circle class="cls-4" cx="681.961" cy="699.164" r="15.229"/><ellipse class="cls-7" cx="425.286" cy="452.925" rx="23.938" ry="40.377" transform="rotate(-79.372 425.286 452.925)"/><path d="M439.926 432.163c12.008 6.307 19.241 15.827 17.534 24.923-2.438 12.993-22.181 20.193-44.098 16.08a66.798 66.798 0 01-10.224-2.765 63.497 63.497 0 0017.734 6.05c21.916 4.113 41.66-3.086 44.098-16.08 2.039-10.864-8.67-22.334-25.044-28.208z" fill="#dd9c66"/><path d="M405.314 428.24s1.456 27.45 19.972 31.205 12.884 8.268 12.884 8.268l5.632-4.513-18.516.938s-7.752 7.222 7.252 9.388a94.528 94.528 0 0027.15 0s15.092 1.595 18.847 4.083 15.959 4.365 18.775 9.998l6.571 13.142h-55.385l-47.875-18.772s-24.901-15.961-15.267-42.246 19.96-11.49 19.96-11.49z" stroke-width=".992" stroke="#000" stroke-miterlimit="10"/><path d="M560.616 498.871s3.461-45.668 0-71.648c0 0 177.479-4.295 203.528 0 0 0 11.97 43.486 0 73.526z" fill="#fbb03b"/><path class="cls-11" d="M764.149 438.682a176.147 176.147 0 015.165 34.664c1.175-24.14-5.165-47.208-5.165-47.208-26.05-4.295-203.529 0-203.529 0 .508 3.815.864 8.06 1.107 12.518 14.954-.352 177.574-4.07 202.422.026zM562.112 462.773c-.255 18.683-1.492 35.013-1.492 35.013l.755.007c.462-9.206.928-22.266.737-35.02z"/><rect class="cls-12" x="367.765" y="493.239" width="418.674" height="37.549" rx="12"/><path class="cls-13" d="M769.542 493.474h-384.88a16.947 16.947 0 00-16.897 16.898v3.755c0 .435.033.863.066 1.29a16.942 16.942 0 0116.831-15.606h384.88a16.942 16.942 0 0116.831 15.606c.033-.427.066-.855.066-1.29v-3.755a16.947 16.947 0 00-16.897-16.898z"/><path class="cls-12" d="M397.347 469.003c-11.088-2.596-21.952-1.153-30.343 3.244 4.638 9.318 14.51 17.06 27.097 20.008 11.41 2.671 22.568.819 30.733-4.236-5.287-8.886-15.154-16.129-27.487-19.016z"/><path class="cls-13" d="M393.827 475.673a44.568 44.568 0 0124.694 15.02 34.558 34.558 0 006.313-3.043c-5.287-8.886-15.153-16.13-27.487-19.017-11.088-2.596-21.952-1.153-30.343 3.244a31.954 31.954 0 002.728 4.468 45.842 45.842 0 0124.095-.672z"/><path d="M437.804 431.442s2.243-4.684 9.753-7.35 17.018 4.844 17.662 10.007 3.196 13.783-.427 20.034c0 0-17.966-9.86-26.988-22.691z" fill="#91a9aa" opacity=".7"/><path opacity=".6" fill="#fff" d="M367.765 224.767h81.867v30.035h-81.867z"/><path fill="#134184" opacity=".6" d="M367.876 275.923l25.078 23.29v26.937h31.992v-26.937h-.282l25.078-23.29v-21.122h-81.866v21.122z"/><ellipse class="cls-17" cx="412.355" cy="267.944" rx="5.427" ry="5.398"/><ellipse class="cls-17" cx="414.936" cy="281.555" rx="2.582" ry="2.816"/><ellipse class="cls-17" cx="431.319" cy="271.698" rx="6.485" ry="7.04"/><ellipse class="cls-17" cx="410.582" cy="295.167" rx="1.773" ry="2.347"/><path class="cls-3" d="M371.038 672.537h76.037v11.398h-76.037z"/><path class="cls-3" d="M371.285 672.537h11.853v26.627h-11.853z"/><ellipse class="cls-18" cx="251.539" cy="897.26" rx="140.209" ry="22.679"/><ellipse class="cls-18" cx="828.461" cy="887.231" rx="140.209" ry="22.679"/><path class="cls-19" d="M895.046 881.936c0-13.587-10.597-24.602-23.669-24.602s-23.668 11.015-23.668 24.602a25.574 25.574 0 00.564 5.295h46.209a25.574 25.574 0 00.564-5.295zM821.716 881.936c0-13.587-10.597-24.602-23.668-24.602s-23.668 11.015-23.668 24.602a25.574 25.574 0 00.563 5.295h46.209a25.574 25.574 0 00.564-5.295z"/><path class="cls-5" d="M820.782 553.515s11.024 145.626 5.823 197.322 0 14.948 0 14.948l-9.56 99.033s-41.731 6.228-42.665 3.737-8.409-122.078-11.523-145.746-13.703-155.472-9.966-169.294z"/><path class="cls-6" d="M820.782 553.515h-8.097s11.024 145.626 5.823 197.322 0 14.949 0 14.949l-9.56 99.032s-21.475 3.205-33.959 4.097c5.25 1.396 42.055-4.097 42.055-4.097l9.561-99.032s-5.2 36.748 0-14.949-5.823-197.322-5.823-197.322z"/><path class="cls-5" d="M802.057 322.478h49.036l4.809 226.557s-48.433 7.474-58.593 3.114z"/><path class="cls-6" d="M843.54 322.479h-9.966l4.808 226.556s-23.708 3.658-41.43 4.362c16.865.966 51.396-4.362 51.396-4.362z"/><path class="cls-12" d="M743.549 503.567s-6.229 7.474-11.834 133.289l85.33-4.983s-13.703-106.11-11.835-130.91z"/><path class="cls-20" d="M873.365 252.56c0-35.775-22.494-64.776-50.243-64.776s-50.243 29.001-50.243 64.776c0 22.16 8.636 41.711 21.8 53.39v-18.095h56.886v18.096c13.164-11.68 21.8-31.231 21.8-53.39z"/><ellipse class="cls-20" cx="874.603" cy="253.876" rx="9.449" ry="10.438"/><ellipse class="cls-21" cx="874.253" cy="254.34" rx="3.5" ry="5.074"/><ellipse class="cls-20" cx="770.698" cy="253.876" rx="9.449" ry="10.438"/><ellipse class="cls-21" cx="770.348" cy="254.34" rx="3.5" ry="5.074"/><path class="cls-21" d="M851.519 199.56c8.12 11.506 13.07 26.796 13.07 43.577 0 35.775-22.495 64.776-50.244 64.776-10.748 0-20.699-4.365-28.869-11.776 9.19 13.024 22.442 21.199 37.174 21.199 27.748 0 50.243-29.001 50.243-64.776 0-21.918-8.452-41.279-21.374-53z"/><path class="cls-22" d="M776.975 257.958s-2.492-22.007 11.626-22.007c0 0-2.076-7.89 0-15.364l41.108-3.322h27.405s3.322 1.246 2.907 12.042c0 0-.415 5.813 8.72 8.305l1.66 11.626 2.492-.83s9.55-19.931-3.737-45.26-52.32-25.745-52.32-25.745-20.76-.415-37.785 19.516c-14.024 16.418-14.533 46.09-14.533 46.09s7.415-2.906 8.067 14.95z"/><ellipse class="cls-22" cx="844.732" cy="201.601" rx="22.081" ry="20.046"/><ellipse cx="815.836" cy="197.207" rx="28.896" ry="27.117" stroke-width="1.453" stroke="#000" stroke-miterlimit="10"/><ellipse class="cls-22" cx="788.822" cy="203.514" rx="16.414" ry="15.729"/><ellipse class="cls-22" cx="866.665" cy="207.444" rx="6.228" ry="10.237"/><path class="cls-20" d="M802.057 305.95v23.012s23.233 23.669 42.675-1.66l-1.736-21.351z"/><path class="cls-21" d="M843.816 305.952h-6.644l1.736 21.35c-5.667 7.383-11.654 10.598-17.295 11.455 7.378 1.072 15.976-1.08 23.938-11.454z"/><path class="cls-24" d="M794.207 287.855v18.096c8.088 7.176 17.882 11.385 28.443 11.385s20.355-4.21 28.443-11.385v-18.096zM772.585 257.958s5.635 24.914 21.622 29.897v2.491s-18.537-7.89-21.622-32.388zM851.093 287.855s16.402-9.966 21.8-39.447c0 0-.83 28.65-21.8 41.938z"/><path class="cls-5" d="M808.156 553.515l78.745-10.086s11.113 118.34 7.376 178.134.768 135.158.768 135.158-45.613 13.702-54.332 6.228-9.856-191.836-12.714-217.373-19.843-92.06-19.843-92.06z"/><path class="cls-6" d="M894.277 721.563c3.737-59.793-7.376-178.134-7.376-178.134l-18.4 2.357c.84 5.756 17.242 118.883 16.656 177.256-.57 56.71 6.967 126.954 7.773 134.292 1.344-.382 2.116-.613 2.116-.613s-4.506-75.365-.769-135.158z"/><path class="cls-12" d="M802.057 322.478s-40.861-.16-81.969 24.34c0 0-15.363 97.994 14.948 160.278 0 0 71.972 13.708 120.14-13.697 0 0-47.059-28.656-92.734-18.69 0 0 22.007-20.347 46.505-18.686l-6.557-127.078z"/><path class="cls-12" d="M844.732 484.259s6.903 128.306.82 148.237c0 0 75.96-2.491 83.52 0 0 0-14.816-141.386-22.937-148.237z"/><path class="cls-12" d="M845.551 322.478s64.298 9.96 68.035 16.527 26.99 68.851 8.304 158.956c0 0-24.523 15.515-124.581-24.008l-2.968-16.526c.035-1.472 40.568-6.186 49.901-8.463 7.405-1.806-3.61-73.592 1.31-126.486z"/><path class="cls-24" d="M802.39 328.945s-15.035 39.88-22.924 50.676c0 0 27.934 66.395 29.33 73.475 0 0 1.155-108.805-6.406-124.151zM845.346 324.784s18.827 32.414 25.47 38.643c-.43 2.235-27.167 89.697-25.631 84.74 2.776.264-10.835-81.736.161-123.383z"/><path class="cls-20" d="M794.341 457.427s-26.086 4.825-31.069 11.468-1.6 5.608 4.2 4.875 29.824-3.063 29.837.183zM879.537 446.473s33.633-27.405 34.464-9.135l-12.042 13.702s-5.398-3.322-22.422-4.567z"/><circle class="cls-25" cx="765.364" cy="407.042" r="13.719"/><circle cx="765.364" cy="407.042" r="5.334" fill="#1a1a1a"/><path class="cls-27" d="M878.914 409.086h-10.589v-32.242h-5.605V415.593h5.605v-.086h10.589v-6.421z"/><path d="M844.732 316.09s29.618 1.039 41.606 29.17l-7.165 1.038s-11.344-22.103-33.622-23.82"/><path class="cls-25" d="M862.826 376.844h6.56s-.332-24.914 15.55-23.668 14.637 22.422 14.637 22.422l6.852-.311s.623-28.962-21.488-31.142-22.111 32.699-22.111 32.699z"/><path class="cls-27" d="M900.53 375.293v33.487h-8.72v6.508H906.135V375.293h-5.605z"/><ellipse class="cls-25" cx="881.625" cy="412.352" rx="2.959" ry="8.408"/><ellipse class="cls-25" cx="890.036" cy="412.352" rx="2.959" ry="8.408"/><path d="M760.857 394.09s-3.062-60.871 41.2-78v6.388s-34.217 13.543-35.152 70.845z"/><path class="cls-13" d="M756.628 437.996s.323.505.791 1.426a38.87 38.87 0 011.73 3.892 50.462 50.462 0 011.857 5.7c.266 1.064.559 2.16.764 3.296.231 1.13.431 2.285.586 3.452.161 1.163.288 2.334.352 3.496.108 1.153.095 2.308.093 3.418.023 1.105-.11 2.194-.186 3.209a25.315 25.315 0 01-.463 2.859 15.611 15.611 0 01-.649 2.368c-.115.347-.206.672-.32.965l-.385.79c-.466.943-.767 1.442-.767 1.442s-.006-.615.046-1.622l.044-.825-.03-.981c-.038-.7.007-1.46-.077-2.313-.087-.851-.087-1.749-.213-2.716-.115-.966-.157-1.97-.31-3.021-.13-1.048-.234-2.126-.392-3.228-.142-1.1-.27-2.22-.445-3.338l-.89-6.609c-.28-2.12-.524-4.111-.69-5.837a93.782 93.782 0 01-.367-4.2c-.066-1.023-.079-1.623-.079-1.623zM901.96 451.04s-.391-.188-1.135-.47c-.754-.266-1.874-.603-3.315-.96-.708-.211-1.53-.328-2.403-.51a35.395 35.395 0 00-2.848-.483c-2.03-.35-4.362-.498-6.876-.767l-3.954-.18c-1.361-.09-2.776-.109-4.23-.107-1.455-.001-2.945-.04-4.47-.011-1.528.07-3.087.098-4.672.147-3.17.003-6.443.424-9.77.563-3.326.215-6.697.64-10.07.953-3.375.335-6.738.826-10.056 1.224-3.319.395-6.568.954-9.724 1.403-1.578.229-3.125.481-4.649.68l-4.44.746c-2.882.505-5.619.937-8.148 1.33-2.529.395-4.826.87-6.88 1.209l-5.32.903c-2.957.478-4.658.717-4.658.717s1.623-.545 4.483-1.44l5.173-1.574c2.006-.576 4.25-1.314 6.749-1.912a434.942 434.942 0 018.063-1.97l4.416-1.037c1.515-.317 3.073-.59 4.652-.895l4.815-.911 2.456-.465 2.5-.356c3.353-.445 6.746-.99 10.165-1.365 3.431-.275 6.849-.661 10.235-.837 1.694-.086 3.376-.145 5.037-.197l2.475-.077 2.446.026c1.617.021 3.207.022 4.761.068 1.556.07 3.078.206 4.557.301 2.961.13 5.746.621 8.31.943 2.554.479 4.888.902 6.917 1.495a27.036 27.036 0 012.83.834c.86.307 1.661.535 2.355.848a27.174 27.174 0 013.174 1.482c.702.407 1.048.652 1.048.652zM921.89 497.961s-.45.229-1.325.604c-.873.374-2.163.915-3.855 1.469a60.37 60.37 0 01-6.194 1.718 62.303 62.303 0 01-8.268 1.294c-1.53.191-3.133.205-4.795.295-1.661.03-3.384-.024-5.153-.106-1.76-.178-3.59-.23-5.427-.569l-2.795-.441-2.81-.659a58.754 58.754 0 01-5.68-1.657c-1.876-.594-3.711-1.279-5.585-1.952a513.314 513.314 0 00-11.363-3.808 984.754 984.754 0 00-11.435-3.714l-11.096-3.566a2107.945 2107.945 0 01-19.672-6.392c-11.509-3.78-19.129-6.524-19.129-6.524s7.955 1.532 19.724 4.462a460.44 460.44 0 019.485 2.426c3.357.893 6.902 1.821 10.542 2.877 3.643 1.043 7.42 2.09 11.221 3.272a865.238 865.238 0 0111.524 3.61 515.62 515.62 0 0111.445 3.975c1.864.675 3.704 1.424 5.52 2.072a55.415 55.415 0 005.329 1.743l2.648.715 2.64.537c1.733.42 3.475.56 5.154.824a76.743 76.743 0 009.588.448l2.192-.054 2.09-.146c1.366-.059 2.648-.242 3.863-.364 2.416-.317 4.524-.662 6.244-1.03 1.72-.368 3.071-.686 3.98-.945.913-.25 1.393-.414 1.393-.414zM886.338 424.466s.056.333.1.886c.046.555.077 1.33.069 2.238-.016.905-.074 1.94-.195 3.024-.108 1.086-.284 2.222-.466 3.344l-.307 1.663-.325 1.598-.617 2.833c-.111.428-.171.807-.244 1.162a9.181 9.181 0 00-.163.933c-.068.528-.139.877-.139.877a5.926 5.926 0 01-.58-.69 3.865 3.865 0 01-.53-.897 6.863 6.863 0 01-.505-1.245 12.108 12.108 0 01-.526-3.23 17.273 17.273 0 01.255-3.638 19.252 19.252 0 012.268-6.321 14.673 14.673 0 011.3-1.875 6.706 6.706 0 01.605-.662zM735.036 507.096l5.295.244c3.365.15 8.171.325 13.93.493l9.292.194c3.296.05 6.77.044 10.36.051 3.592-.003 7.3-.087 11.064-.18 3.765-.08 7.584-.265 11.397-.499l5.709-.37c1.892-.175 3.781-.316 5.648-.516 3.729-.424 7.406-.795 10.93-1.369q2.65-.398 5.184-.876l2.509-.451 2.427-.528 2.363-.52 2.269-.588 2.2-.555 2.09-.63 2.007-.606 1.885-.665c1.224-.438 2.412-.804 3.468-1.283l3.005-1.26 2.487-1.219 1.07-.524.91-.52 1.437-.828 1.203-.692-1.086.859-1.312 1.036-.838.654-1.007.656-2.361 1.537c-.883.519-1.867 1.026-2.908 1.599-1.03.597-2.19 1.088-3.394 1.66-.604.281-1.224.571-1.868.844l-1.996.779-2.086.813-2.198.743-2.283.75-2.381.667-2.451.68-2.532.606c-1.702.441-3.466.76-5.255 1.106-3.58.68-7.299 1.279-11.095 1.712-1.898.225-3.815.39-5.737.59-1.925.146-3.857.317-5.791.437-3.87.194-7.742.338-11.551.375-1.905.041-3.795.027-5.66-.012-1.867-.015-3.71-.081-5.52-.13-3.624-.097-7.121-.324-10.433-.556-3.312-.23-6.437-.523-9.316-.84a224.821 224.821 0 01-13.863-1.889c-1.667-.27-2.968-.536-3.857-.706z"/><path d="M788.35 252.34a6.49 6.49 0 01.608-.794 13.595 13.595 0 011.912-1.817 15.484 15.484 0 011.463-1.009 12.552 12.552 0 011.78-.916 13.79 13.79 0 012.053-.711 14.432 14.432 0 012.25-.351 10.229 10.229 0 012.3.104c.378.06.754.109 1.116.195l1.047.362a7.696 7.696 0 011.85.925 8.039 8.039 0 01.789.52l.647.6a7.514 7.514 0 011.05 1.088c.269.36.48.691.656.956.349.533.517.848.517.848s-.335-.174-.866-.496c-.264-.163-.586-.352-.93-.586-.338-.242-.807-.387-1.24-.633l-.692-.347c-.24-.11-.51-.178-.773-.273a8.305 8.305 0 00-1.653-.489c-.292-.055-.582-.125-.876-.194l-.916-.074a11.127 11.127 0 00-1.87-.02 5.613 5.613 0 00-.946.094c-.313.054-.632.057-.942.128-.617.154-1.244.234-1.832.43-.6.152-1.173.338-1.72.529-.553.169-1.059.39-1.55.553l-1.308.539-1.02.44zM858.367 252.34l-.905-.4-1.02-.44-1.308-.538c-.491-.163-.997-.384-1.55-.554a20.9 20.9 0 00-1.72-.528c-.588-.196-1.215-.276-1.832-.43-.31-.071-.63-.074-.942-.128a5.614 5.614 0 00-.946-.095 11.128 11.128 0 00-1.87.02l-.916.075c-.294.069-.584.139-.876.194a8.302 8.302 0 00-1.653.489c-.262.095-.532.162-.773.273l-.693.347c-.432.245-.9.39-1.24.633-.343.234-.665.423-.929.586-.531.322-.865.496-.865.496s.167-.315.516-.848c.175-.265.387-.595.656-.956a7.513 7.513 0 011.05-1.088l.647-.6a8.05 8.05 0 01.79-.52 7.695 7.695 0 011.849-.925l1.047-.362c.362-.086.738-.136 1.115-.195a10.229 10.229 0 012.301-.104 14.433 14.433 0 012.25.351 13.789 13.789 0 012.052.711 12.55 12.55 0 011.782.916 15.48 15.48 0 011.462 1.009 13.59 13.59 0 011.912 1.817 6.496 6.496 0 01.609.794z"/><ellipse cx="799.789" cy="258.643" rx="5.447" ry="4.987"/><ellipse cx="847.876" cy="258.643" rx="5.447" ry="4.987"/><path class="cls-19" d="M236.471 905.104a22.963 22.963 0 00.423-4.202c0-14.537-13.585-26.321-30.344-26.321s-30.344 11.784-30.344 26.32a22.963 22.963 0 00.423 4.203zM323.373 905.104a22.963 22.963 0 00.423-4.202c0-14.537-13.586-26.321-30.344-26.321s-30.344 11.784-30.344 26.32a22.963 22.963 0 00.423 4.203z"/><path class="cls-5" d="M178.688 610.636s-15.838 74.023-3.35 128.687a32.372 32.372 0 01.762 7.791c-.387 21.671-2.277 117.754-5.56 128.896 0 0 44.058 12.21 80.326 5.027 0 0-3.95-131.794-6.463-142.92-2.1-9.293-8.619-119.58-8.26-124.608z"/><path class="cls-20" d="M286.205 292.05c0-28.396-18.436-51.416-41.177-51.416s-41.177 23.02-41.177 51.417c0 17.36 6.898 32.699 17.45 42.009v-19.8h44.408v22.245c12.253-8.908 20.496-25.474 20.496-44.454z"/><path class="cls-21" d="M256.879 242.806c10.551 9.31 17.449 24.649 17.449 42.009 0 28.396-18.436 51.416-41.177 51.416a33.646 33.646 0 01-11.85-2.171 35.72 35.72 0 0023.727 9.407c22.741 0 41.177-23.02 41.177-51.416 0-23.252-12.363-42.889-29.326-49.245z"/><path class="cls-24" d="M265.709 314.123l15.085-9.965-.575 4.983-14.51 10.249v-5.267zM221.219 313.735l-15.085-9.966.575 4.983 14.51 10.25v-5.267z"/><path class="cls-28" d="M245.277 247.715c2.941.12 31.146 2.26 37.66 40.357a2.972 2.972 0 01.004.971c-.743 4.595-6.454 40.964-2.868 51.073 3.736 10.53 22.553 23.628 43.936 7.933a13.711 13.711 0 001.3-20.765c-8.794-8.797-18.049-23.407-21.296-39.357-4.707-23.124-12.545-78.638-58.985-78.523-52.582.13-57.413 39.912-57.842 56.02-.44 16.532-13.072 44.712-23.203 59.951a18.84 18.84 0 00.435 21.57c7.315 10.012 20.519 19.328 40.031.957a16.537 16.537 0 004.564-16.856c-3.055-9.944-6.58-26.548-1.238-38.995 8.121-18.925 3.188-40.417 37.026-44.317a3.037 3.037 0 01.476-.02z"/><ellipse class="cls-28" cx="184.553" cy="343.228" rx="27.531" ry="23.7"/><ellipse class="cls-28" cx="195.326" cy="257.392" rx="16.997" ry="16.758"/><ellipse class="cls-28" cx="180.962" cy="283.901" rx="14.364" ry="14.603"/><ellipse class="cls-29" cx="172.143" cy="316.044" rx="19.909" ry="20.241"/><ellipse class="cls-29" cx="188.422" cy="319.527" rx="19.909" ry="20.241"/><path class="cls-5" d="M240.176 618.896s12.756 116.425 24.47 135.508a11.6 11.6 0 011.713 6.835c-.709 10.81-2.728 34.146-6.874 119.845 0 0 35.55 10.338 74.692 3.156 0 0-9.695-123.86-10.773-132.478s-21.463-145.435-23.976-147.23z"/><ellipse class="cls-28" cx="306.085" cy="336.285" rx="24.944" ry="25.442"/><path class="cls-6" d="M244.675 738.116c-2.1-9.292-8.618-105.568-8.26-110.596h-15.191c-.36 5.028 6.16 101.304 8.26 110.596 2.513 11.127 6.463 142.922 6.463 142.922a167.52 167.52 0 01-19.543 2.014c11.282.581 23.39.232 34.735-2.014 0 0-3.95-131.795-6.464-142.922z"/><ellipse class="cls-28" cx="307.604" cy="311.774" rx="17.476" ry="19.723"/><path class="cls-20" d="M329.448 479.925s4.98 74.896-1.723 127.085c0 0 11.13 32.58-1.469 44.873a3.75 3.75 0 01-6.265-3.385c1.29-7.253 2.303-17.15-1.614-17.752 0 0-.799 1.774-1.594 4.1a2.335 2.335 0 01-4.48-.203 83.42 83.42 0 01-1.587-29.752s-10.533-112.039-6.224-124.966z"/><path class="cls-21" d="M330.748 607.011c6.703-52.189 1.723-127.085 1.723-127.085h-5.746s-1.301 99.574 2.949 149.324c0 0-5.12 24.293-3.418 22.633 12.6-12.292 4.492-44.872 4.492-44.872z"/><path class="cls-6" d="M291.487 620.5c2.513 1.796 19.23 128.187 20.306 136.805.976 7.806 9.02 107.516 10.53 128.144 3.892-.417 7.853-.97 11.854-1.705 0 0-9.695-122.858-10.773-131.477s-19.397-134.554-21.91-136.35z"/><path class="cls-5" d="M234.587 361.727s-9.499-2.992-13.368 8.526c0 0-36.427.985-54.621 6.73 0 0-25.376 31.6-53.147 88.578 2.753-1.616 9.777 2.354 12.447 3.417 10.485 4.176 19.352 8.882 26.336 10.468 0 0 12.527-23.94 19.91-27.77 0 0-7.94 105.335-29.965 140.766 0 0 .958 5.267 11.491 11.012 0 0-5.745 30.165 47.88 25.377 0 0 2.873 5.266 35.91-2.394s3.26-1.437 3.26-1.437 15.328-11.995 35.365-7.5c18.85 4.23 24.576-5.427 38.461-5.427s21.546-15.322 21.546-15.322-11.012-35.43-18.194-43.57-20.11-40.22-17.715-53.147-.369-7.645-.369-7.645l37.814-6.146s-3.045-7.755-6.6-18.288-1.879-74-19.833-91.93l-37.944-5.772s-3.206-7.457-19.498-11.855z"/><path class="cls-20" d="M233.15 336.231s1.916 26.388-3.35 33.57c0 0 1.555 22.025 13.705 34.474 0 0 10.713-9.63 18.853-34.022 0 0-6.704-9.657-4.788-34.022z"/><path fill="#dec5e2" d="M147.589 445.93l25.855 99.111 70.577-7.661-28.443-101.505-67.989 10.055z"/><path class="cls-20" d="M118.392 465.761s-8.33 22.177-.976 44.985a11.873 11.873 0 009.121 8.012c16.093 3.03 60.441 8.44 99.566-13.808 0 0 31.6-20.444.479-28.895l1.89 6.744s-10.509 4.915-15.297-7.534-7.66 7.182-.957 14.364-43.092-7.182-65.117 2.394c0 0 2.412-10.94-1.897-14.77z"/><path class="cls-21" d="M212.113 473.362a5.255 5.255 0 00-1.42-1.897 13.47 13.47 0 001.42 1.897zM236.223 480.378C235.998 488.917 223 502 223 502c-41 18.833-84.43 12.787-100.523 9.755a11.144 11.144 0 01-5.646-2.933c.184.645.146 1.259.355 1.906a11.874 11.874 0 009.121 8.012c16.093 3.03 60.441 8.44 99.566-13.808 0 0 23.083-14.938 10.349-24.554zM257.57 336.231h-5.746c-1.915 24.365 4.788 34.022 4.788 34.022-5.485 16.438-12.135 26.164-15.892 30.764a34.336 34.336 0 002.785 3.258s10.713-9.63 18.853-34.022c0 0-6.703-9.657-4.788-34.022z"/><path class="cls-24" d="M221.3 314.26v19.8a35.719 35.719 0 0023.728 9.407 34.973 34.973 0 0020.681-6.962v-22.244z"/><ellipse class="cls-28" cx="304.492" cy="286.327" rx="11.97" ry="12.177"/><ellipse class="cls-28" cx="296.904" cy="266.62" rx="10.7" ry="14.125"/><path class="cls-12" d="M172.549 443.6l4.104 11.906 19.152-3.83-3.821-10.95-19.435 2.874z"/><path d="M200.593 413.85s1.752-34.766 20.626-43.597c0 0-28.37-.572-29.167 43.598z"/><circle class="cls-31" cx="197.002" cy="423.546" r="12.928"/><circle cx="197.002" cy="423.546" r="6.321"/><path class="cls-27" d="M265.709 429.867l-11.956 27.075 13.632 7.541 3.95-6.463-6.823-3.472 8.739-20.229-7.542-4.452z"/><ellipse class="cls-31" cx="270.182" cy="464.332" rx="10.953" ry="2.812" transform="rotate(-65.611 270.182 464.332)"/><path class="cls-27" d="M296.472 444.733l6.984 4.668-13.328 26.933-11.252-5.028 3.95-6.823 5.204 1.437 8.442-21.187z"/><ellipse class="cls-31" cx="278.876" cy="468.433" rx="10.953" ry="2.812" transform="rotate(-65.61 278.878 468.434)"/><path d="M273.251 370.253s23.58 11.997 20.348 40.366l7.541 3.232s3.115-43.386-27.889-43.598z"/><path class="cls-31" d="M273.251 434.32l-7.542-4.453s11.372-28.585 31.481-19.248 12.892 27.65 6.266 38.782l-6.984-4.668s11.491-17.237-1.077-22.982c0 0-11.609-11.132-22.144 12.568z"/><path class="cls-6" d="M221.22 370.253s-3.39 26.885 8.58 46.972c0 0 2.513-11.035 13.705-12.95a72.685 72.685 0 01-13.706-34.474s3.246-.347 2.341-8.074c0 0-6.094-4.428-10.92 8.526z"/><path class="cls-6" d="M273.251 370.253s-4.19 33.543-10.894 43.598c0 0-2.753-11.013-18.852-9.576 0 0 16.458-22.079 18.852-34.022 0 0-2.328.882-3.683-10.3 0 0 11.108 2.612 14.577 10.3zM319.238 556.253c-10.896-12.156-26.691-51.054-27.415-52.68.176.396 17.245 40.267 27.99 52.253zM299.226 511.566c-1.054-14.476 6.52-41.806 6.782-42.975-.064.284-6.387 28.608-5.349 42.871zM153.52 604.157c-6.96-1.492-11.782-10.99-11.984-11.394l-.231-.463.366-.366c3.664-3.663 9.655-20.042 9.709-20.209-.215.675-4.466 16.32-8.329 20.827 1.016 1.85 5.276 9.023 10.769 10.2z"/><path class="cls-6" d="M202.044 632.527a57.56 57.56 0 01-17.63-2.672c-1.723-.087-19.483-1.247-27.958-12.133-8.8-11.308 4.47-34.015 4.985-35.004-.122.234-12.087 23.54-3.852 34.121 8.31 10.675 26.808 11.578 26.994 11.585l.218.045c.161.06 16.358 5.88 33.793-.007l.46 1.36a53.132 53.132 0 01-17.01 2.705z"/><path class="cls-6" d="M221.173 630.34l-.224-.126c-9.864-5.515-1.78-32.809-1.488-33.994l.06-.253c-.069.276-6.676 27.556 1.913 32.867 3.87-.686 49.027-8.628 69.548-9.687 1.289-.864 12.784-6.44 18.027-7.358-2.06-3.828-8.17-18.364-7.69-26.487-.52 8.784 9.344 26.521 9.444 26.7l.557.995-1.14.072c-4.214.266-18.55 7.36-18.693 7.431l-.284.073c-21.175 1.065-69.293 9.634-69.777 9.721zM171.233 442.578a24.745 24.745 0 01.026-20.8 29.44 29.44 0 001.29 20.228z"/><path d="M215.316 286.327a10.67 10.67 0 012.101-2.249 11.616 11.616 0 011.225-.882l.707-.436c.253-.132.52-.25.787-.378a11.836 11.836 0 011.732-.63 11.033 11.033 0 011.908-.276l.975-.01.96.142a7.38 7.38 0 011.793.53 7.994 7.994 0 011.517.83 6.254 6.254 0 011.184.963 5.548 5.548 0 01.882.916c.233.299.422.568.58.786.31.44.473.694.473.694s-.257-.178-.681-.497l-.747-.581a7.85 7.85 0 00-1.01-.664 8.264 8.264 0 00-1.218-.688l-.692-.302a3.129 3.129 0 00-.728-.27 8.332 8.332 0 00-1.57-.347l-.818-.102-.833.034a9.617 9.617 0 00-1.657.19c-.53.171-1.083.237-1.58.453-.253.092-.5.19-.748.27l-.704.31c-.464.191-.874.438-1.277.625-.38.227-.749.412-1.057.606l-.806.501c-.447.282-.698.462-.698.462zM257.297 285.985a10.669 10.669 0 012.101-2.248 11.61 11.61 0 011.225-.883l.707-.436c.253-.131.52-.25.787-.378a11.834 11.834 0 011.732-.63 11.032 11.032 0 011.908-.276l.975-.01.959.143a7.38 7.38 0 011.794.53 7.992 7.992 0 011.517.83 6.254 6.254 0 011.184.962 5.551 5.551 0 01.882.916c.233.3.422.569.58.787.31.439.473.693.473.693s-.257-.178-.681-.497l-.747-.581a7.851 7.851 0 00-1.01-.664 8.268 8.268 0 00-1.218-.688l-.692-.301a3.126 3.126 0 00-.728-.271 8.333 8.333 0 00-1.57-.347l-.818-.102-.833.034a9.614 9.614 0 00-1.657.19c-.53.172-1.084.238-1.58.453-.253.093-.5.19-.749.27l-.703.31c-.464.192-.874.438-1.278.626-.378.227-.748.411-1.056.605l-.806.501c-.447.283-.698.462-.698.462z"/><ellipse class="cls-32" cx="223.728" cy="288.569" rx="2.334" ry="2.46"/><ellipse class="cls-32" cx="265.709" cy="288.569" rx="2.334" ry="2.46"/></svg>